<svg xmlns="http://www.w3.org/2000/svg" width="512" height="512" viewBox="0 0 512 512" version="1.1">
	<path d="M 0 256.002 L 0 512.004 256.250 511.752 L 512.500 511.500 512.752 255.750 L 513.004 0 256.502 0 L 0 0 0 256.002 M 0.492 256.500 C 0.492 397.300, 0.608 454.751, 0.750 384.170 C 0.892 313.588, 0.892 198.388, 0.750 128.170 C 0.608 57.951, 0.492 115.700, 0.492 256.500 M 234.500 15.598 C 202.463 20.142, 180.708 26.673, 153.500 39.915 C 109.950 61.110, 71.920 95.362, 49.339 133.730 C 22.564 179.224, 10.658 233.392, 16.484 283.201 C 26.126 365.626, 81.683 440.195, 159 474.485 C 198.331 491.929, 244.097 499.378, 281.699 494.455 C 352.741 485.154, 416.398 446.410, 455.027 388.960 C 476.262 357.379, 490.512 319.562, 495.045 282.756 C 496.987 266.994, 495.808 233.707, 492.682 216 C 486.633 181.737, 475.222 152.695, 457.021 125.237 C 425.553 77.765, 372.960 39.659, 317.247 23.965 C 295.464 17.829, 281.514 15.813, 258.500 15.478 C 246.950 15.310, 236.150 15.364, 234.500 15.598 M 243.500 66.715 C 230.450 68.519, 217.817 74.434, 208.606 83.050 C 199.955 91.143, 195.282 98.448, 191.048 110.500 C 187.658 120.152, 187.535 121.005, 187.518 135 C 187.507 143.489, 187.085 149.805, 186.500 150.235 C 185.950 150.639, 183.730 150.976, 181.566 150.985 C 173.450 151.016, 163.979 158.271, 159.842 167.625 C 158.468 170.731, 154.153 193.669, 154.005 198.655 C 153.999 198.846, 150.940 198.514, 129.373 195.980 C 119.953 194.874, 111.403 194.266, 110.373 194.631 C 107.013 195.819, 103.038 200.281, 102.424 203.554 C 102.038 205.612, 102.408 207.889, 103.460 209.923 C 105.165 213.220, 110.317 216.990, 113.128 216.996 C 114.023 216.998, 115.278 217.630, 115.917 218.400 C 116.556 219.170, 120.888 235.933, 125.544 255.650 C 134.281 292.653, 151.510 359.055, 153.239 362.389 C 154.035 363.922, 153.639 364.732, 151.134 366.693 C 140.400 375.093, 149.799 397.932, 165.051 400.509 C 170.222 401.382, 177.555 397.922, 180.749 393.102 C 185.299 386.234, 182.919 373.743, 176.502 370.819 C 173.670 369.529, 173.072 367.500, 175.750 368.269 C 179.923 369.467, 243.274 386.289, 261.500 391.038 C 285.093 397.186, 286.911 398.106, 281.345 401.081 C 277.943 402.900, 276 407.595, 276 414 C 276 433.089, 298.661 443.189, 312.339 430.197 C 316.602 426.148, 318 422.712, 317.996 416.300 C 317.992 409.383, 315.686 404.941, 311.118 403.049 C 307.873 401.705, 307.597 401.213, 308.607 398.582 C 308.989 397.586, 310.424 397, 312.479 397 C 314.986 397, 320.466 393.904, 336.073 383.671 C 347.254 376.341, 357.188 369.253, 358.149 367.921 C 359.738 365.719, 373.871 306.082, 392.020 225 C 395.405 209.875, 399.336 194.881, 400.756 191.679 C 404.091 184.157, 403.268 181.045, 397.480 179.300 C 394.321 178.348, 361.570 174.920, 356.250 174.985 C 354.698 175.004, 354.650 171.277, 356.127 165.411 C 357.085 161.604, 357.008 160.666, 355.607 159.118 C 354.092 157.444, 352.407 157.338, 334.480 157.788 C 323.421 158.066, 315 157.893, 315.001 157.389 C 315.001 156.900, 315.721 153.125, 316.600 149 C 319.620 134.830, 317.127 118.136, 309.729 103 C 303.921 91.116, 290.907 77.885, 279.825 72.595 C 268.627 67.251, 255.263 65.088, 243.500 66.715 M 237.438 83.035 C 224.918 87.005, 213.817 96.737, 208.391 108.500 C 204.775 116.340, 203.194 124.497, 202.722 137.750 L 202.286 150 210.123 150 C 220.046 150, 224.904 151.899, 229.885 157.727 C 233.116 161.507, 234.026 162.056, 235.634 161.196 C 236.698 160.627, 249.927 159.848, 265.510 159.437 C 280.892 159.031, 294.608 158.401, 295.989 158.036 C 298.069 157.487, 298.698 156.438, 299.654 151.936 C 300.288 148.946, 300.851 142.409, 300.904 137.410 C 301.190 110.371, 286.247 88.467, 263.465 82.533 C 255.543 80.469, 244.879 80.675, 237.438 83.035 M 206.500 164.153 C 202.100 164.652, 193.838 165.190, 188.141 165.349 C 178.506 165.618, 177.653 165.809, 175.947 168.069 C 173.688 171.063, 172.007 177.470, 171.979 183.193 C 171.968 185.562, 171.344 190.425, 170.592 194 C 169.104 201.082, 169.477 201.957, 174.003 201.985 C 175.379 201.993, 185.439 203.123, 196.357 204.495 C 207.275 205.867, 216.612 206.740, 217.104 206.436 C 217.597 206.131, 218.009 203.096, 218.021 199.691 C 218.035 195.549, 218.898 191.183, 220.627 186.500 C 224.411 176.250, 224.453 175.161, 221.308 169 C 218.133 162.782, 218.251 162.820, 206.500 164.153 M 338.650 167.106 C 329.317 169.299, 247.205 181, 241.149 181 L 237.235 181 236.549 188.250 C 236.172 192.238, 235.291 198.530, 234.592 202.233 C 233.460 208.225, 233.495 209.017, 234.910 209.423 C 235.784 209.673, 250.450 211.518, 267.500 213.521 C 297.381 217.032, 298.650 217.269, 302.663 220.082 C 304.953 221.687, 308.103 223.009, 309.663 223.020 C 312.152 223.037, 323.087 224.401, 338.250 226.587 L 343 227.272 343.015 219.386 C 343.023 215.049, 343.916 201.825, 345 190 C 346.084 178.175, 346.977 167.938, 346.985 167.250 C 347.002 165.833, 344.269 165.785, 338.650 167.106 M 357 207.882 L 353.500 208.500 352.771 217.983 C 351.712 231.767, 351.976 231.537, 330.901 237.059 C 308.849 242.837, 304.500 244.324, 304.500 246.083 C 304.500 247.085, 306.382 247.707, 310.923 248.208 C 320.465 249.261, 320.395 249.103, 319.080 266.633 C 318.467 274.810, 317.507 287.800, 316.947 295.500 C 315.512 315.251, 309.952 373.268, 309.412 374.143 C 309.164 374.544, 305.631 376.981, 301.560 379.560 C 296.735 382.616, 294.342 384.728, 294.686 385.624 C 296.158 389.460, 304.636 385.908, 330 370.828 L 342.500 363.396 344.262 352.448 C 345.231 346.427, 348.482 327.775, 351.487 311 C 359.604 265.695, 369 210.862, 369 208.805 C 369 207.327, 368.229 207.024, 364.750 207.132 C 362.413 207.204, 358.925 207.542, 357 207.882 M 137.061 226.705 C 137.095 227.692, 137.888 230.942, 138.825 233.927 L 140.527 239.354 168.013 243.613 C 183.131 245.956, 211.313 250.601, 230.640 253.936 C 249.967 257.271, 267.427 260, 269.440 260 L 273.099 260 272.428 253.750 C 272.059 250.313, 271.474 247.207, 271.129 246.848 C 270.349 246.040, 193.019 233.122, 164.500 229.036 C 152.950 227.381, 142.037 225.776, 140.250 225.468 C 137.570 225.007, 137.011 225.224, 137.061 226.705 M 340 251.435 C 332.152 254.327, 331.039 255.010, 330.591 257.215 C 329.947 260.383, 322.208 325.879, 321.443 334.635 C 321.023 339.447, 321.185 341.996, 321.940 342.463 C 323.660 343.526, 331.910 338.242, 332.476 335.714 C 332.748 334.496, 335.477 317.075, 338.540 297 C 341.604 276.925, 344.515 258.700, 345.010 256.500 C 346.226 251.093, 344.811 249.662, 340 251.435 M 144.414 256.589 C 145.615 263.322, 151.910 291.397, 158.585 319.788 C 162.113 334.797, 165 347.719, 165 348.503 C 165 349.288, 165.787 350.348, 166.750 350.858 C 167.713 351.369, 181.264 354.797, 196.865 358.475 C 212.466 362.153, 230.016 366.511, 235.865 368.159 C 252.589 372.871, 283.151 380.182, 283.726 379.607 C 285.594 377.740, 281.514 375.926, 266.852 372.106 C 257.858 369.762, 249.460 367.177, 248.190 366.360 C 244.102 363.732, 245.602 360.323, 253.748 353.726 C 258.411 349.950, 262.568 345.427, 265.404 341.042 C 268.807 335.782, 270.775 333.803, 274.032 332.366 L 278.252 330.504 277.581 321.002 C 275.626 293.298, 274.191 275.858, 273.840 275.506 C 273.114 274.780, 255.929 272.926, 255.037 273.477 C 254.055 274.084, 253.856 275.939, 250.916 311.967 C 249.773 325.974, 248.421 338.213, 247.911 339.166 C 246.451 341.894, 242.823 344, 239.583 344 C 237.948 344, 226.011 341.756, 213.055 339.014 C 200.100 336.272, 187.173 333.547, 184.330 332.960 C 180.662 332.203, 178.690 331.175, 177.543 329.425 C 175.942 326.982, 168.524 300.895, 161.520 273.081 C 159.523 265.150, 157.477 257.890, 156.972 256.948 C 156.415 255.907, 154.229 254.962, 151.400 254.537 C 148.839 254.153, 146.063 253.578, 145.231 253.258 C 143.971 252.775, 143.834 253.334, 144.414 256.589 M 171 260.342 C 171 263.441, 183.684 315.899, 184.907 317.862 C 185.796 319.287, 193.796 321.194, 194.379 320.120 C 194.792 319.358, 185.453 264.155, 184.518 261.827 C 183.692 259.772, 182.407 259.255, 176.012 258.407 C 171.111 257.757, 171 257.800, 171 260.342 M 197 263.829 C 197 269.399, 206.184 322.498, 207.266 323.186 C 207.945 323.617, 209.175 323.982, 210 323.998 C 210.825 324.014, 212.577 324.316, 213.894 324.668 L 216.289 325.309 215.644 318.404 C 215.290 314.607, 214.546 304.300, 213.992 295.500 C 212.272 268.206, 211.876 265.001, 210.108 264.085 C 209.224 263.626, 205.912 262.937, 202.750 262.553 C 197.458 261.912, 197 262.013, 197 263.829 M 224.556 267.936 C 223.859 269.119, 225.926 325.323, 226.693 326.040 C 227.940 327.205, 235.732 328.244, 236.299 327.321 C 236.576 326.869, 237.132 313.646, 237.534 297.935 L 238.266 269.370 231.577 268.371 C 227.898 267.821, 224.739 267.625, 224.556 267.936" stroke="none" fill="black" fill-rule="evenodd"/>
</svg>